<?xml version="1.0" encoding="UTF-8" standalone="no"?> <svg width="64" height="64" viewBox="0 0 64 64" fill="none" xmlns="http://www.w3.org/2000/svg">
<path d="M19 3H51C52.8565 3 54.637 3.7375 55.9497 5.05025C57.2625 6.36301 58 8.14348 58 10V61H12V10C12 8.14348 12.7375 6.36301 14.0503 5.05025C15.363 3.7375 17.1435 3 19 3V3Z" fill="#52B788"/>
<path d="M49 22V21.87C49.018 19.6022 49.5881 17.373 50.661 15.375C50.9499 14.8212 51.0583 14.1909 50.9712 13.5723C50.8841 12.9538 50.6058 12.378 50.1752 11.9254C49.7446 11.4729 49.1833 11.1664 48.5698 11.0487C47.9564 10.9309 47.3215 11.008 46.754 11.269C44.6582 12.3304 42.3559 12.9212 40.008 13H25.992C23.6444 12.9224 21.3421 12.333 19.246 11.273C18.6785 11.012 18.0436 10.9349 17.4301 11.0527C16.8167 11.1704 16.2554 11.4769 15.8248 11.9294C15.3942 12.382 15.1159 12.9578 15.0288 13.5763C14.9417 14.1949 15.0501 14.8252 15.339 15.379C16.4087 17.3689 16.9787 19.5889 17 21.848V21.978C16.9257 24.3356 16.3362 26.6484 15.273 28.754C15.02 29.31 14.9428 29.93 15.0517 30.5311C15.1606 31.1322 15.4504 31.6857 15.8824 32.1176C16.3143 32.5496 16.8678 32.8394 17.4689 32.9483C18.07 33.0572 18.69 32.98 19.246 32.727C21.3421 31.667 23.6444 31.0776 25.992 31H37.4C40.6075 30.8927 43.8001 31.4819 46.758 32.727C47.314 32.98 47.934 33.0572 48.5351 32.9483C49.1362 32.8394 49.6897 32.5496 50.1216 32.1176C50.5536 31.6857 50.8434 31.1322 50.9523 30.5311C51.0611 29.93 50.984 29.31 50.731 28.754C49.669 26.6556 49.0782 24.3505 49 22V22Z" fill="#40916C"/>
<path d="M32 8H34C36.6522 8 39.1957 9.05357 41.0711 10.9289C42.9464 12.8043 44 15.3478 44 18V21H22V18C22 15.3478 23.0536 12.8043 24.9289 10.9289C26.8043 9.05357 29.3478 8 32 8V8Z" fill="#40916C"/>
<path d="M25 35H41C43.1217 35 45.1566 35.8429 46.6569 37.3431C48.1571 38.8434 49 40.8783 49 43V48H17V43C17 40.8783 17.8429 38.8434 19.3431 37.3431C20.8434 35.8429 22.8783 35 25 35V35Z" fill="#40916C"/>
<path d="M58 59.0001H12V44.0001L13.4 43.4391C15.7485 42.4995 18.3197 42.2636 20.8 42.7601L24.127 43.4251C26.0192 43.8038 27.9719 43.7574 29.844 43.2891L32.016 42.7461C33.9777 42.2569 36.0261 42.2298 38 42.6671L41.31 43.4031C43.0811 43.7969 44.915 43.8163 46.694 43.4601L49.611 42.8771C52.4544 42.3081 55.4064 42.7033 58 44.0001V59.0001Z" fill="#40916C"/>
<path d="M29 33H37V36C37 37.0609 36.5786 38.0783 35.8284 38.8284C35.0783 39.5786 34.0609 40 33 40C31.9391 40 30.9217 39.5786 30.1716 38.8284C29.4214 38.0783 29 37.0609 29 36V33Z" fill="#40916C"/>
<path d="M33 35C30.8783 35 28.8434 34.1571 27.3431 32.6569C25.8429 31.1566 25 29.1217 25 27V21C26.2681 21 27.5237 20.7503 28.6953 20.2651C29.8668 19.7799 30.9313 19.0686 31.828 18.172L33 17L34.172 18.172C35.0687 19.0686 36.1332 19.7799 37.3047 20.2651C38.4763 20.7503 39.7319 21 41 21V21V27C41 29.1217 40.1571 31.1566 38.6569 32.6569C37.1566 34.1571 35.1217 35 33 35Z" fill="#40916C"/>
<path d="M51 21V20.87C51.018 18.6022 51.5881 16.373 52.661 14.375C52.9499 13.8212 53.0583 13.1909 52.9712 12.5723C52.8841 11.9538 52.6058 11.378 52.1752 10.9254C51.7446 10.4729 51.1833 10.1664 50.5698 10.0487C49.9564 9.93095 49.3215 10.008 48.754 10.269C46.6582 11.3304 44.3559 11.9212 42.008 12H27.992C25.6444 11.9224 23.3421 11.333 21.246 10.273C20.6785 10.012 20.0436 9.93495 19.4301 10.0527C18.8167 10.1704 18.2554 10.4769 17.8248 10.9294C17.3942 11.382 17.1159 11.9578 17.0288 12.5763C16.9417 13.1949 17.0501 13.8252 17.339 14.379C18.4087 16.3689 18.9787 18.5889 19 20.848V20.978C18.9257 23.3356 18.3362 25.6484 17.273 27.754C17.02 28.31 16.9428 28.93 17.0517 29.5311C17.1606 30.1322 17.4504 30.6857 17.8824 31.1176C18.3143 31.5496 18.8678 31.8394 19.4689 31.9483C20.07 32.0572 20.69 31.98 21.246 31.727C23.3421 30.667 25.6444 30.0776 27.992 30H39.4C42.6075 29.8927 45.8001 30.4819 48.758 31.727C49.314 31.98 49.934 32.0572 50.5351 31.9483C51.1362 31.8394 51.6897 31.5496 52.1216 31.1176C52.5536 30.6857 52.8434 30.1322 52.9523 29.5311C53.0611 28.93 52.984 28.31 52.731 27.754C51.669 25.6556 51.0782 23.3505 51 21V21Z" fill="#BBEFC1"/>
<path d="M41 20C39.7319 20 38.4763 19.7503 37.3047 19.2651C36.1332 18.7799 35.0687 18.0686 34.172 17.172L33 16L31.828 17.172C30.9313 18.0686 29.8668 18.7799 28.6953 19.2651C27.5237 19.7503 26.2681 20 25 20V26C25 27.4624 25.4039 28.8965 26.167 30.144C26.7708 30.0498 27.3809 30.0016 27.992 30H39.4C39.573 30 39.747 30.006 39.92 30.008C40.6285 28.7912 41.0012 27.4081 41 26V20Z" fill="#95D5B2"/>
<path d="M34 8H36C37.3132 8 38.6136 8.25866 39.8268 8.7612C41.0401 9.26375 42.1425 10.0003 43.0711 10.9289C43.9997 11.8575 44.7362 12.9599 45.2388 14.1732C45.7413 15.3864 46 16.6868 46 18V21H24V18C24 15.3478 25.0536 12.8043 26.9289 10.9289C28.8043 9.05357 31.3478 8 34 8V8Z" fill="#00B4D8"/>
<path d="M36 10.5C36.0073 9.63915 36.2205 8.79255 36.622 8.031C36.416 8.019 36.21 8 36 8H34C31.3478 8 28.8043 9.05357 26.9289 10.9289C25.0536 12.8043 24 15.3478 24 18V21H46V18C46 17.988 46 17.977 46 17.966C40.393 17.62 36 14.412 36 10.5Z" fill="#0096C7"/>
<path d="M27 35H43C45.1217 35 47.1566 35.8429 48.6569 37.3431C50.1571 38.8434 51 40.8783 51 43V48H19V43C19 40.8783 19.8429 38.8434 21.3431 37.3431C22.8434 35.8429 24.8783 35 27 35V35Z" fill="#BBEFC1"/>
<path d="M31 32H39V35C39 36.0609 38.5786 37.0783 37.8284 37.8284C37.0783 38.5786 36.0609 39 35 39C33.9391 39 32.9217 38.5786 32.1716 37.8284C31.4214 37.0783 31 36.0609 31 35V32Z" fill="#EDB88E"/>
<path d="M38 37C36.5999 36.9998 35.2247 36.6304 34.013 35.929C35.9414 35.6829 37.7141 34.743 39 33.285V32H31V35C30.9974 35.8817 31.2872 36.7394 31.8238 37.4389C32.3605 38.1385 33.1138 38.6405 33.9661 38.8664C34.8184 39.0923 35.7215 39.0294 36.5342 38.6876C37.3469 38.3457 38.0234 37.7442 38.458 36.977C38.305 36.986 38.155 37 38 37Z" fill="#DA9367"/>
<path d="M35 34C32.8783 34 30.8434 33.1571 29.3431 31.6569C27.8429 30.1566 27 28.1217 27 26V20C28.2681 20 29.5237 19.7503 30.6953 19.2651C31.8668 18.7799 32.9313 18.0686 33.828 17.172L35 16L36.172 17.172C37.0687 18.0686 38.1332 18.7799 39.3047 19.2651C40.4763 19.7503 41.7319 20 43 20V20V26C43 28.1217 42.1571 30.1566 40.6569 31.6569C39.1566 33.1571 37.1217 34 35 34Z" fill="#F9DBAF"/>
<path d="M43 20H45C45.5304 20 46.0391 20.2107 46.4142 20.5858C46.7893 20.9609 47 21.4696 47 22C47 22.7956 46.6839 23.5587 46.1213 24.1213C45.5587 24.6839 44.7956 25 44 25H43V20Z" fill="#EDB88E"/>
<path d="M25 20H27V25H26C25.2044 25 24.4413 24.6839 23.8787 24.1213C23.3161 23.5587 23 22.7956 23 22C23 21.4696 23.2107 20.9609 23.5858 20.5858C23.9609 20.2107 24.4696 20 25 20V20Z" fill="#EDB88E"/>
<path d="M36.172 17.172L35 16L33.828 17.172C32.9313 18.0686 31.8668 18.7799 30.6953 19.2651C29.5237 19.7503 28.2681 20 27 20V26C26.9983 27.6029 27.4787 29.1693 28.3787 30.4956C29.2787 31.822 30.5568 32.8471 32.0468 33.4378C33.5369 34.0285 35.1702 34.1575 36.7345 33.808C38.2989 33.4585 39.722 32.6467 40.819 31.478C39.9189 31.822 38.9636 31.9989 38 32C35.8783 32 33.8434 31.1571 32.3432 29.6569C30.8429 28.1566 30 26.1217 30 24V22.514C31.4423 22.045 32.7538 21.2426 33.828 20.172L35 19L36.172 20.172C37.0687 21.0686 38.1332 21.7799 39.3047 22.2651C40.4763 22.7503 41.7319 23 43 23V20C41.7319 20 40.4763 19.7503 39.3047 19.2651C38.1332 18.7799 37.0687 18.0686 36.172 17.172V17.172Z" fill="#EDB88E"/>
<path d="M44 21V20H43V25H44C44.4403 24.9993 44.8749 24.901 45.2726 24.7122C45.6703 24.5234 46.0212 24.2487 46.3 23.908C45.6457 23.7521 45.063 23.3804 44.6457 22.8529C44.2285 22.3253 44.001 21.6726 44 21V21Z" fill="#DA9367"/>
<path d="M26 21V20H27V25H26C25.5597 24.9993 25.1251 24.901 24.7274 24.7122C24.3297 24.5234 23.9788 24.2487 23.7 23.908C24.3543 23.7521 24.937 23.3804 25.3543 22.8529C25.7715 22.3253 25.999 21.6726 26 21Z" fill="#DA9367"/>
<path d="M35 42C33.0525 41.9985 31.1725 41.2866 29.7124 39.9979C28.2523 38.7092 27.3124 36.9322 27.069 35H27C24.8783 35 22.8434 35.8429 21.3431 37.3431C19.8429 38.8434 19 40.8783 19 43V48H51V43C50.9978 42.6656 50.9748 42.3316 50.931 42H35Z" fill="#95D5B2"/>
<path d="M32 25C32.5523 25 33 24.5523 33 24C33 23.4477 32.5523 23 32 23C31.4477 23 31 23.4477 31 24C31 24.5523 31.4477 25 32 25Z" fill="#0096C7"/>
<path d="M38 25C38.5523 25 39 24.5523 39 24C39 23.4477 38.5523 23 38 23C37.4477 23 37 23.4477 37 24C37 24.5523 37.4477 25 38 25Z" fill="#0096C7"/>
<path d="M37 29H33C32.7348 29 32.4804 28.8946 32.2929 28.7071C32.1054 28.5196 32 28.2652 32 28C32 27.7348 32.1054 27.4804 32.2929 27.2929C32.4804 27.1054 32.7348 27 33 27H37C37.2652 27 37.5196 27.1054 37.7071 27.2929C37.8946 27.4804 38 27.7348 38 28C38 28.2652 37.8946 28.5196 37.7071 28.7071C37.5196 28.8946 37.2652 29 37 29Z" fill="#FF7373"/>
<path d="M25 47C24.7348 47 24.4804 46.8946 24.2929 46.7071C24.1054 46.5196 24 46.2652 24 46V42C24 41.7348 24.1054 41.4804 24.2929 41.2929C24.4804 41.1054 24.7348 41 25 41C25.2652 41 25.5196 41.1054 25.7071 41.2929C25.8946 41.4804 26 41.7348 26 42V46C26 46.2652 25.8946 46.5196 25.7071 46.7071C25.5196 46.8946 25.2652 47 25 47Z" fill="#52B788"/>
<path d="M58 61.0001H12V46.0001L13.4 45.4391C15.7485 44.4995 18.3197 44.2636 20.8 44.7601L24.127 45.4251C26.0192 45.8038 27.9719 45.7574 29.844 45.2891L32.016 44.7461C33.9777 44.2569 36.0261 44.2298 38 44.6671L41.31 45.4031C43.0811 45.7969 44.915 45.8163 46.694 45.4601L49.611 44.8771C52.4544 44.3081 55.4064 44.7033 58 46.0001V46.0001V61.0001Z" fill="#48CAE4"/>
<path d="M31 55C27.9051 54.9981 24.8982 53.9702 22.4498 52.0772C20.0015 50.1841 18.2498 47.5327 17.469 44.538C16.0739 44.618 14.7007 44.9219 13.402 45.438L12 46V61H58V55H31Z" fill="#00B4D8"/>
<path d="M50 61C56.0751 61 61 56.0751 61 50C61 43.9249 56.0751 39 50 39C43.9249 39 39 43.9249 39 50C39 56.0751 43.9249 61 50 61Z" fill="#FF7373"/>
<path d="M56 56C54.0792 56.0014 52.1916 55.4994 50.5252 54.5441C48.8588 53.5888 47.4719 52.2135 46.5025 50.5552C45.5332 48.897 45.0153 47.0136 45.0005 45.0929C44.9856 43.1722 45.4744 41.2811 46.418 39.608C44.7315 40.1865 43.2109 41.1662 41.9872 42.4628C40.7634 43.7595 39.8732 45.3341 39.3931 47.0512C38.9131 48.7683 38.8576 50.5763 39.2315 52.3196C39.6053 54.0629 40.3973 55.6892 41.5393 57.0584C42.6812 58.4276 44.1389 59.4987 45.7867 60.1795C47.4345 60.8603 49.2231 61.1303 50.9985 60.9664C52.7739 60.8024 54.4828 60.2093 55.978 59.2383C57.4733 58.2672 58.7101 56.9472 59.582 55.392C58.4301 55.7923 57.2195 55.9978 56 56Z" fill="#EF5350"/>
<path d="M53 49C52.7348 49 52.4804 48.8946 52.2929 48.7071C52.1054 48.5196 52 48.2652 52 48V46C52 45.4696 51.7893 44.9609 51.4142 44.5858C51.0391 44.2107 50.5304 44 50 44C49.4696 44 48.9609 44.2107 48.5858 44.5858C48.2107 44.9609 48 45.4696 48 46V48C48 48.2652 47.8946 48.5196 47.7071 48.7071C47.5196 48.8946 47.2652 49 47 49C46.7348 49 46.4804 48.8946 46.2929 48.7071C46.1054 48.5196 46 48.2652 46 48V46C46 44.9391 46.4214 43.9217 47.1716 43.1716C47.9217 42.4214 48.9391 42 50 42C51.0609 42 52.0783 42.4214 52.8284 43.1716C53.5786 43.9217 54 44.9391 54 46V48C54 48.2652 53.8946 48.5196 53.7071 48.7071C53.5196 48.8946 53.2652 49 53 49Z" fill="#0096C7"/>
<path d="M54 48H46V56H54V48Z" fill="#48CAE4"/>
<path d="M52 54C50.9391 54 49.9217 53.5786 49.1716 52.8284C48.4214 52.0783 48 51.0609 48 50V48H46V56H54V54H52Z" fill="#00B4D8"/>
<path d="M54 55.81C52.2629 55.4877 50.6289 54.7518 49.2364 53.6644C47.8439 52.577 46.7338 51.1702 46 49.563V56H54V55.81Z" fill="#0096C7"/>
<path d="M50 53C50.5523 53 51 52.5523 51 52C51 51.4477 50.5523 51 50 51C49.4477 51 49 51.4477 49 52C49 52.5523 49.4477 53 50 53Z" fill="#0096C7"/>
<path d="M29 26L26.163 19.381C27.2286 16.6803 27.2821 13.6855 26.3138 10.9485C25.3455 8.21144 23.4205 5.9166 20.8936 4.48688C18.3668 3.05715 15.4083 2.58889 12.5635 3.16838C9.7186 3.74787 7.17903 5.33607 5.41277 7.64028C3.64651 9.9445 2.77259 12.8095 2.95205 15.7072C3.1315 18.6049 4.35225 21.3402 6.38933 23.4089C8.4264 25.4775 11.1425 26.7402 14.0372 26.9643C16.9318 27.1883 19.8099 26.3586 22.141 24.628L29 26Z" fill="#ADE8F4"/>
<path d="M26.217 19.2231C24.0602 20.0407 21.7131 20.2179 19.458 19.7334C17.2029 19.2489 15.1357 18.1234 13.5051 16.492C11.8744 14.8607 10.7496 12.7931 10.266 10.5378C9.7824 8.28252 9.96053 5.93553 10.779 3.77905C9.17075 4.38065 7.71047 5.32064 6.49693 6.53542C5.2834 7.7502 4.34491 9.21144 3.74496 10.8203C3.14501 12.4292 2.89758 14.1481 3.01942 15.8609C3.14127 17.5736 3.62953 19.2402 4.45119 20.7479C5.27285 22.2557 6.40874 23.5693 7.78202 24.6001C9.1553 25.6309 10.7339 26.3547 12.4111 26.7225C14.0884 27.0904 15.825 27.0938 17.5036 26.7325C19.1823 26.3711 20.7637 25.6535 22.141 24.6281L29 26.0001L26.163 19.3811C26.183 19.3291 26.2 19.2751 26.217 19.2231Z" fill="#48CAE4"/>
<path d="M15 10C15.2652 10 15.5196 9.89464 15.7071 9.70711C15.8946 9.51957 16 9.26522 16 9V6C16 5.73478 15.8946 5.48043 15.7071 5.29289C15.5196 5.10536 15.2652 5 15 5C14.7348 5 14.4804 5.10536 14.2929 5.29289C14.1054 5.48043 14 5.73478 14 6V9C14 9.26522 14.1054 9.51957 14.2929 9.70711C14.4804 9.89464 14.7348 10 15 10Z" fill="#E53935"/>
<path d="M19.24 11.7601C19.5052 11.76 19.7595 11.6546 19.947 11.4671L22.067 9.34706C22.2491 9.15845 22.3499 8.90585 22.3477 8.64365C22.3454 8.38146 22.2402 8.13064 22.0548 7.94524C21.8694 7.75983 21.6186 7.65466 21.3564 7.65238C21.0942 7.6501 20.8416 7.7509 20.653 7.93306L18.533 10.0531C18.3932 10.1929 18.298 10.3711 18.2594 10.565C18.2208 10.759 18.2406 10.96 18.3163 11.1427C18.392 11.3254 18.5201 11.4816 18.6845 11.5915C18.8489 11.7013 19.0422 11.76 19.24 11.7601V11.7601Z" fill="#E53935"/>
<path d="M15 20C14.7348 20 14.4804 20.1054 14.2929 20.2929C14.1054 20.4804 14 20.7348 14 21V24C14 24.2652 14.1054 24.5196 14.2929 24.7071C14.4804 24.8946 14.7348 25 15 25C15.2652 25 15.5196 24.8946 15.7071 24.7071C15.8946 24.5196 16 24.2652 16 24V21C16 20.7348 15.8946 20.4804 15.7071 20.2929C15.5196 20.1054 15.2652 20 15 20Z" fill="#C62828"/>
<path d="M22.067 22.067C22.2545 21.8795 22.3598 21.6252 22.3598 21.36C22.3598 21.0949 22.2545 20.8406 22.067 20.653L19.947 18.533C19.7584 18.3509 19.5058 18.2501 19.2436 18.2524C18.9814 18.2546 18.7306 18.3598 18.5452 18.5452C18.3598 18.7306 18.2546 18.9814 18.2523 19.2436C18.25 19.5058 18.3508 19.7584 18.533 19.947L20.653 22.067C20.8405 22.2545 21.0948 22.3598 21.36 22.3598C21.6252 22.3598 21.8795 22.2545 22.067 22.067Z" fill="#E53935"/>
<path d="M10 15C10 14.7348 9.89464 14.4804 9.70711 14.2929C9.51957 14.1054 9.26522 14 9 14H6C5.73478 14 5.48043 14.1054 5.29289 14.2929C5.10536 14.4804 5 14.7348 5 15C5 15.2652 5.10536 15.5196 5.29289 15.7071C5.48043 15.8946 5.73478 16 6 16H9C9.26522 16 9.51957 15.8946 9.70711 15.7071C9.89464 15.5196 10 15.2652 10 15Z" fill="#C62828"/>
<path d="M15 21C18.3137 21 21 18.3137 21 15C21 11.6863 18.3137 9 15 9C11.6863 9 9 11.6863 9 15C9 18.3137 11.6863 21 15 21Z" fill="#FF7373"/>
<path d="M19.5 16.5C18.5973 16.5021 17.7058 16.3001 16.8922 15.9089C16.0786 15.5178 15.364 14.9477 14.8019 14.2413C14.2398 13.5349 13.8448 12.7106 13.6463 11.8299C13.4479 10.9493 13.4512 10.0352 13.656 9.15601C12.6112 9.39529 11.6495 9.91009 10.871 10.6469C10.0925 11.3837 9.52564 12.3156 9.22928 13.3457C8.93292 14.3758 8.91793 15.4665 9.18585 16.5043C9.45377 17.5422 9.99482 18.4893 10.7528 19.2472C11.5107 20.0052 12.4578 20.5462 13.4957 20.8141C14.5335 21.0821 15.6242 21.0671 16.6543 20.7707C17.6844 20.4744 18.6163 19.9075 19.3531 19.129C20.0899 18.3505 20.6047 17.3888 20.844 16.344C20.4033 16.4464 19.9524 16.4987 19.5 16.5V16.5Z" fill="#EF5350"/>
<path d="M18.866 19.572C16.8457 19.0237 15.004 17.9565 13.5238 16.4762C12.0435 14.996 10.9763 13.1543 10.428 11.134C9.45347 12.2798 8.94603 13.7505 9.00663 15.2534C9.06724 16.7563 9.69143 18.1814 10.755 19.245C11.8186 20.3086 13.2437 20.9328 14.7466 20.9934C16.2495 21.054 17.7202 20.5465 18.866 19.572V19.572Z" fill="#E53935"/>
<path d="M19 16H24C24.2652 16 24.5196 15.8946 24.7071 15.7071C24.8946 15.5196 25 15.2652 25 15C25 14.7348 24.8946 14.4804 24.7071 14.2929C24.5196 14.1054 24.2652 14 24 14H19C18.7348 14 18.4804 14.1054 18.2929 14.2929C18.1054 14.4804 18 14.7348 18 15C18 15.2652 18.1054 15.5196 18.2929 15.7071C18.4804 15.8946 18.7348 16 19 16Z" fill="#EF5350"/>
<path d="M16 18C16.5523 18 17 17.5523 17 17C17 16.4477 16.5523 16 16 16C15.4477 16 15 16.4477 15 17C15 17.5523 15.4477 18 16 18Z" fill="#E53935"/>
<path d="M13 16C13.5523 16 14 15.5523 14 15C14 14.4477 13.5523 14 13 14C12.4477 14 12 14.4477 12 15C12 15.5523 12.4477 16 13 16Z" fill="#E53935"/>
<path d="M16 14C16.5523 14 17 13.5523 17 13C17 12.4477 16.5523 12 16 12C15.4477 12 15 12.4477 15 13C15 13.5523 15.4477 14 16 14Z" fill="#EF5350"/>
<path d="M11.464 17.122L7.92901 20.657C7.8335 20.7493 7.75731 20.8596 7.70491 20.9816C7.6525 21.1036 7.62491 21.2348 7.62376 21.3676C7.6226 21.5004 7.6479 21.6321 7.69818 21.755C7.74847 21.8779 7.82272 21.9895 7.91661 22.0834C8.0105 22.1773 8.12216 22.2516 8.24505 22.3018C8.36795 22.3521 8.49963 22.3774 8.63241 22.3763C8.76519 22.3751 8.89641 22.3475 9.01841 22.2951C9.14041 22.2427 9.25076 22.1665 9.34301 22.071L12.878 18.536C13.0602 18.3474 13.161 18.0948 13.1587 17.8326C13.1564 17.5704 13.0512 17.3196 12.8658 17.1342C12.6804 16.9488 12.4296 16.8436 12.1674 16.8413C11.9052 16.8391 11.6526 16.9399 11.464 17.122V17.122Z" fill="#C62828"/>
<path d="M9.34301 7.92907C9.25076 7.83356 9.14041 7.75738 9.01841 7.70497C8.89641 7.65256 8.76519 7.62497 8.63241 7.62382C8.49963 7.62266 8.36795 7.64796 8.24505 7.69825C8.12216 7.74853 8.0105 7.82278 7.91661 7.91667C7.82272 8.01057 7.74847 8.12222 7.69818 8.24511C7.6479 8.36801 7.6226 8.49969 7.62376 8.63247C7.62491 8.76525 7.6525 8.89647 7.70491 9.01847C7.75731 9.14048 7.8335 9.25082 7.92901 9.34307L11.464 12.8781C11.6526 13.0602 11.9052 13.161 12.1674 13.1587C12.4296 13.1565 12.6804 13.0513 12.8658 12.8659C13.0512 12.6805 13.1564 12.4297 13.1587 12.1675C13.161 11.9053 13.0602 11.6527 12.878 11.4641L9.34301 7.92907Z" fill="#E53935"/>
<path d="M13 16C13.03 15.9955 13.0597 15.9895 13.089 15.982C12.7185 15.5677 12.377 15.1283 12.067 14.667C12.0083 14.8169 11.9875 14.9791 12.0066 15.139C12.0257 15.2989 12.084 15.4516 12.1763 15.5835C12.2686 15.7154 12.3922 15.8225 12.5359 15.8952C12.6796 15.9678 12.839 16.0038 13 16Z" fill="#C62828"/>
</svg>
